<svg width="121" height="33" viewBox="0 0 121 33" fill="none" xmlns="http://www.w3.org/2000/svg">
<path d="M103.291 30.7405C104.976 30.9038 106.66 31.0793 108.341 31.2608L112.051 22.1001L115.577 32.1058C117.386 32.3324 119.195 32.5704 120.998 32.8189L114.816 15.2732L121 0.00121002H115.762L115.708 0.076231L112.367 8.32652L109.434 0.00242003H104.262L109.601 15.1538L103.291 30.7405H103.291ZM99.3798 30.3815V0.00121002H94.2102V29.9552C95.9345 30.0883 97.6596 30.2314 99.3798 30.3815ZM60.5464 28.6826C61.9419 28.6826 63.3359 28.6931 64.7274 28.7044V17.5432H70.9376V12.7903H64.7278V4.7598H71.8802V0.00121002H59.538V28.6867C59.8732 28.6867 60.21 28.6814 60.5464 28.6826ZM44.4959 28.973C46.2182 28.9117 47.942 28.8601 49.6683 28.8181V4.76061H54.5003V0.00242003H39.6639V4.76061H44.4967V28.973H44.4959ZM4.95905 32.1763V14.0765L11.0801 31.4455C12.9625 31.2341 14.8477 31.0353 16.7382 30.8473V0.00161335H11.7779V18.75L5.17282 0.00161335H0V32.8269H0.0310571C1.66982 32.6003 3.31423 32.3849 4.95905 32.1763ZM34.6791 4.7594V0.00161335H22.3357V30.3331C26.4424 29.9786 30.5539 29.6813 34.669 29.4413V24.6791C32.2828 24.8178 29.9015 24.9776 27.5259 25.1554V17.5452H33.7361V12.7895H27.5259V4.7594H34.6791ZM82.1254 24.4516V0H76.9332V28.9904C81.0634 29.142 85.1775 29.3534 89.2778 29.6196V24.8545C86.8981 24.7009 84.5144 24.5678 82.1254 24.4516Z" fill="#C7C7C7"/>
</svg>